<?xml version="1.0" standalone="no"?>
<!DOCTYPE svg PUBLIC "-//W3C//DTD SVG 20010904//EN"
 "http://www.w3.org/TR/2001/REC-SVG-20010904/DTD/svg10.dtd">
<svg version="1.0" xmlns="http://www.w3.org/2000/svg"
 width="126.000000pt" height="116.000000pt" viewBox="0 0 126.000000 116.000000"
 preserveAspectRatio="xMidYMid meet">
<metadata>
Created by potrace 1.10, written by Peter Selinger 2001-2011
</metadata>
<g transform="translate(0.000000,116.000000) scale(0.100000,-0.100000)"
fill="#000000" stroke="none">
<path d="M529 1022 c-153 -40 -283 -172 -324 -327 -82 -316 192 -618 515 -568
249 39 423 278 382 526 -38 224 -234 389 -461 386 -25 0 -75 -8 -112 -17z
m226 -37 c312 -81 418 -473 191 -701 -241 -240 -651 -107 -709 230 -50 295
226 546 518 471z"/>
<path d="M499 743 c14 -28 121 -319 121 -332 0 -6 14 -11 30 -11 17 0 30 5 30
11 0 13 107 304 121 332 8 14 5 17 -18 17 -27 0 -30 -5 -78 -150 -27 -83 -52
-150 -55 -150 -3 0 -28 67 -55 150 -48 145 -51 150 -78 150 -23 0 -26 -3 -18
-17z"/>
</g>
</svg>
